<svg width="15" height="16" viewBox="0 0 15 16" fill="none" xmlns="http://www.w3.org/2000/svg">
<path d="M10.8333 1.02332H4.16665C2.3257 1.02332 0.833313 2.5157 0.833313 4.35665V11.0233C0.833313 12.8643 2.3257 14.3566 4.16665 14.3566H10.8333C12.6743 14.3566 14.1666 12.8643 14.1666 11.0233V4.35665C14.1666 2.5157 12.6743 1.02332 10.8333 1.02332Z" stroke="#F6F3EE" stroke-opacity="0.8" stroke-width="1.33333" stroke-linecap="round" stroke-linejoin="round"/>
<path d="M10.1667 7.2699C10.2489 7.82473 10.1542 8.39138 9.89585 8.88924C9.63751 9.38711 9.22877 9.79084 8.72776 10.043C8.22675 10.2952 7.65897 10.383 7.1052 10.2939C6.55143 10.2047 6.03985 9.94329 5.64323 9.54667C5.24662 9.15006 4.98516 8.63848 4.89605 8.08471C4.80694 7.53093 4.89472 6.96316 5.14689 6.46215C5.39907 5.96113 5.8028 5.55239 6.30066 5.29406C6.79853 5.03573 7.36518 4.94096 7.92001 5.02323C8.48596 5.10715 9.00991 5.37087 9.41447 5.77544C9.81903 6.18 10.0828 6.70395 10.1667 7.2699Z" stroke="#F6F3EE" stroke-opacity="0.8" stroke-width="1.33333" stroke-linecap="round" stroke-linejoin="round"/>
<path d="M11.1667 4.02332H11.1734" stroke="#F6F3EE" stroke-opacity="0.8" stroke-width="1.33333" stroke-linecap="round" stroke-linejoin="round"/>
</svg>
