<svg width="16" height="17" viewBox="0 0 16 17" fill="none" xmlns="http://www.w3.org/2000/svg">
<path d="M13.3333 9.51161C13.3333 12.8449 11 14.5116 8.22666 15.4783C8.08144 15.5275 7.92369 15.5251 7.78 15.4716C5 14.5116 2.66666 12.8449 2.66666 9.51161V4.84495C2.66666 4.66813 2.7369 4.49856 2.86193 4.37354C2.98695 4.24852 3.15652 4.17828 3.33333 4.17828C4.66666 4.17828 6.33333 3.37828 7.49333 2.36494C7.63457 2.24428 7.81423 2.17798 8 2.17798C8.18576 2.17798 8.36543 2.24428 8.50666 2.36494C9.67333 3.38494 11.3333 4.17828 12.6667 4.17828C12.8435 4.17828 13.013 4.24852 13.1381 4.37354C13.2631 4.49856 13.3333 4.66813 13.3333 4.84495V9.51161Z" stroke="#D4AF37" stroke-width="1.33333" stroke-linecap="round" stroke-linejoin="round"/>
</svg>
