<svg width="16" height="16" viewBox="0 0 16 16" fill="none" xmlns="http://www.w3.org/2000/svg">
<path d="M10.9334 6.57837C10.9334 7.25025 10.6665 7.89461 10.1914 8.36971C9.71628 8.8448 9.07191 9.1117 8.40003 9.1117C7.72815 9.1117 7.08379 8.8448 6.6087 8.36971C6.1336 7.89461 5.8667 7.25025 5.8667 6.57837" stroke="#F6F3EE" stroke-width="1.26667" stroke-linecap="round" stroke-linejoin="round"/>
<path d="M2.76526 4.06653H14.0348" stroke="#F6F3EE" stroke-width="1.26667" stroke-linecap="round" stroke-linejoin="round"/>
<path d="M2.95341 3.70749C2.78897 3.92674 2.70007 4.19342 2.70007 4.46749V12.9117C2.70007 13.2477 2.83353 13.5698 3.07107 13.8074C3.30862 14.0449 3.6308 14.1784 3.96674 14.1784H12.8334C13.1693 14.1784 13.4915 14.0449 13.7291 13.8074C13.9666 13.5698 14.1001 13.2477 14.1001 12.9117V4.46749C14.1001 4.19342 14.0112 3.92674 13.8467 3.70749L12.5801 2.01839C12.4621 1.86107 12.3091 1.73339 12.1332 1.64544C11.9573 1.5575 11.7634 1.51172 11.5667 1.51172H5.23341C5.03676 1.51172 4.84282 1.5575 4.66694 1.64544C4.49105 1.73339 4.33806 1.86107 4.22007 2.01839L2.95341 3.70749Z" stroke="#F6F3EE" stroke-width="1.26667" stroke-linecap="round" stroke-linejoin="round"/>
</svg>
