<svg width="16" height="12" viewBox="0 0 16 12" fill="none" xmlns="http://www.w3.org/2000/svg">
<path d="M1.37466 6.32697C1.3191 6.17729 1.3191 6.01264 1.37466 5.86297C1.9158 4.55087 2.83434 3.42899 4.01384 2.63957C5.19335 1.85014 6.58069 1.42871 8 1.42871C9.4193 1.42871 10.8066 1.85014 11.9861 2.63957C13.1657 3.42899 14.0842 4.55087 14.6253 5.86297C14.6809 6.01264 14.6809 6.17729 14.6253 6.32697C14.0842 7.63906 13.1657 8.76094 11.9861 9.55037C10.8066 10.3398 9.4193 10.7612 8 10.7612C6.58069 10.7612 5.19335 10.3398 4.01384 9.55037C2.83434 8.76094 1.9158 7.63906 1.37466 6.32697Z" stroke="#C4B895" stroke-width="1.33333" stroke-linecap="round" stroke-linejoin="round"/>
<path d="M8 8.09497C9.10457 8.09497 10 7.19954 10 6.09497C10 4.9904 9.10457 4.09497 8 4.09497C6.89543 4.09497 6 4.9904 6 6.09497C6 7.19954 6.89543 8.09497 8 8.09497Z" stroke="#C4B895" stroke-width="1.33333" stroke-linecap="round" stroke-linejoin="round"/>
</svg>
