<svg width="15" height="15" viewBox="0 0 15 15" fill="none" xmlns="http://www.w3.org/2000/svg">
<path d="M6.16665 12.8333C6.16659 12.9572 6.20106 13.0787 6.26618 13.1841C6.3313 13.2895 6.4245 13.3746 6.53532 13.43L7.86865 14.0967C7.97031 14.1475 8.08328 14.1714 8.19681 14.1663C8.31035 14.1612 8.42068 14.1271 8.51734 14.0673C8.61399 14.0075 8.69376 13.924 8.74906 13.8247C8.80437 13.7254 8.83337 13.6137 8.83332 13.5V8.83333C8.83347 8.50292 8.95629 8.18433 9.17798 7.93933L13.9933 2.61333C14.0796 2.51771 14.1364 2.39912 14.1567 2.27192C14.1771 2.14472 14.1601 2.01435 14.1079 1.89658C14.0557 1.77881 13.9705 1.67868 13.8627 1.6083C13.7548 1.53792 13.6288 1.5003 13.5 1.5H1.49998C1.37105 1.50005 1.24491 1.53748 1.13682 1.60776C1.02873 1.67804 0.943336 1.77815 0.890986 1.89598C0.838637 2.0138 0.821574 2.14427 0.841867 2.27159C0.862159 2.39892 0.918935 2.51762 1.00532 2.61333L5.82198 7.93933C6.04367 8.18433 6.1665 8.50292 6.16665 8.83333V12.8333Z" stroke="#F6F3EE" stroke-width="1.33333" stroke-linecap="round" stroke-linejoin="round"/>
</svg>
