<svg width="16" height="16" viewBox="0 0 16 16" fill="none" xmlns="http://www.w3.org/2000/svg">
<path d="M2.06671 6.26163C2.06672 5.55686 2.28052 4.86867 2.67986 4.28795C3.0792 3.70724 3.64531 3.26131 4.3034 3.00908C4.96149 2.75685 5.68061 2.71018 6.36579 2.87522C7.05096 3.04027 7.66995 3.40927 8.14101 3.9335C8.17419 3.96897 8.2143 3.99725 8.25886 4.01659C8.30342 4.03593 8.35147 4.0459 8.40005 4.0459C8.44862 4.0459 8.49667 4.03593 8.54123 4.01659C8.58579 3.99725 8.6259 3.96897 8.65908 3.9335C9.12866 3.40587 9.74779 3.03376 10.4341 2.86671C11.1204 2.69966 11.8413 2.74558 12.5008 2.99837C13.1603 3.25116 13.7273 3.69882 14.1261 4.28177C14.5249 4.86472 14.7367 5.55531 14.7334 6.26163C14.7334 7.71196 13.7834 8.79496 12.8334 9.74496L9.35511 13.1099C9.2371 13.2454 9.0916 13.3543 8.92827 13.4293C8.76495 13.5042 8.58754 13.5436 8.40783 13.5447C8.22812 13.5459 8.05022 13.5088 7.88596 13.4359C7.7217 13.363 7.57483 13.2559 7.45511 13.1219L3.96671 9.74496C3.01671 8.79496 2.06671 7.7183 2.06671 6.26163Z" stroke="#F6F3EE" stroke-width="1.26667" stroke-linecap="round" stroke-linejoin="round"/>
</svg>
