<svg width="16" height="13" viewBox="0 0 16 13" fill="none" xmlns="http://www.w3.org/2000/svg">
<path d="M1.33334 4.42829C1.33336 3.68642 1.55841 2.96201 1.97877 2.35073C2.39913 1.73945 2.99502 1.27006 3.68775 1.00456C4.38048 0.73905 5.13745 0.68992 5.85869 0.863653C6.57992 1.03739 7.23149 1.42581 7.72734 1.97762C7.76227 2.01497 7.80449 2.04474 7.85139 2.06509C7.8983 2.08544 7.94888 2.09595 8.00001 2.09595C8.05114 2.09595 8.10172 2.08544 8.14863 2.06509C8.19553 2.04474 8.23775 2.01497 8.27268 1.97762C8.76697 1.42222 9.41869 1.03054 10.1411 0.854691C10.8635 0.678847 11.6223 0.727188 12.3166 0.993279C13.0108 1.25937 13.6076 1.73059 14.0274 2.34422C14.4472 2.95786 14.6702 3.6848 14.6667 4.42829C14.6667 5.95496 13.6667 7.09496 12.6667 8.09496L9.00534 11.637C8.88112 11.7796 8.72796 11.8942 8.55604 11.9732C8.38412 12.0521 8.19737 12.0935 8.0082 12.0947C7.81903 12.0959 7.63178 12.0568 7.45887 11.9801C7.28596 11.9034 7.13136 11.7907 7.00534 11.6496L3.33334 8.09496C2.33334 7.09496 1.33334 5.96162 1.33334 4.42829Z" stroke="#C4B895" stroke-width="1.33333" stroke-linecap="round" stroke-linejoin="round"/>
</svg>
