<svg width="36" height="33" viewBox="0 0 36 33" fill="none" xmlns="http://www.w3.org/2000/svg">
<rect y="0.844971" width="36" height="32" rx="10" fill="white" fill-opacity="0.8"/>
<path d="M11.3333 15.1783C11.3333 14.4364 11.5584 13.712 11.9788 13.1007C12.3991 12.4895 12.995 12.0201 13.6877 11.7546C14.3805 11.4891 15.1374 11.4399 15.8587 11.6137C16.5799 11.7874 17.2315 12.1758 17.7273 12.7276C17.7623 12.765 17.8045 12.7947 17.8514 12.8151C17.8983 12.8354 17.9489 12.8459 18 12.8459C18.0511 12.8459 18.1017 12.8354 18.1486 12.8151C18.1955 12.7947 18.2377 12.765 18.2727 12.7276C18.767 12.1722 19.4187 11.7805 20.1411 11.6047C20.8635 11.4288 21.6223 11.4772 22.3166 11.7433C23.0108 12.0094 23.6076 12.4806 24.0274 13.0942C24.4472 13.7079 24.6702 14.4348 24.6667 15.1783C24.6667 16.705 23.6667 17.845 22.6667 18.845L19.0053 22.387C18.8811 22.5296 18.728 22.6442 18.556 22.7232C18.3841 22.8021 18.1974 22.8435 18.0082 22.8447C17.819 22.8459 17.6318 22.8068 17.4589 22.7301C17.286 22.6534 17.1314 22.5407 17.0053 22.3996L13.3333 18.845C12.3333 17.845 11.3333 16.7116 11.3333 15.1783Z" stroke="#F6F3EE" stroke-width="1.33333" stroke-linecap="round" stroke-linejoin="round"/>
</svg>
