<svg width="15" height="23" viewBox="0 0 15 23" fill="none" xmlns="http://www.w3.org/2000/svg">
<path d="M10.977 12.58L12.492 21.106C12.509 21.2064 12.4949 21.3095 12.4516 21.4017C12.4084 21.4939 12.338 21.5707 12.2499 21.6218C12.1619 21.6729 12.0603 21.6958 11.9588 21.6877C11.8573 21.6795 11.7607 21.6405 11.682 21.576L8.102 18.889C7.92917 18.7598 7.71923 18.6901 7.5035 18.6901C7.28777 18.6901 7.07782 18.7598 6.905 18.889L3.319 21.575C3.24032 21.6394 3.14386 21.6783 3.04249 21.6865C2.94113 21.6947 2.83967 21.6718 2.75166 21.6208C2.66365 21.5699 2.59328 21.4933 2.54992 21.4013C2.50656 21.3093 2.49229 21.2063 2.509 21.106L4.023 12.58" stroke="#D4AF37" stroke-width="2" stroke-linecap="round" stroke-linejoin="round"/>
<path d="M7.5 13.6899C10.8137 13.6899 13.5 11.0036 13.5 7.68994C13.5 4.37623 10.8137 1.68994 7.5 1.68994C4.18629 1.68994 1.5 4.37623 1.5 7.68994C1.5 11.0036 4.18629 13.6899 7.5 13.6899Z" stroke="#D4AF37" stroke-width="2" stroke-linecap="round" stroke-linejoin="round"/>
</svg>
