<svg width="16" height="17" viewBox="0 0 16 17" fill="none" xmlns="http://www.w3.org/2000/svg">
<path d="M10.6667 14.845V13.5116C10.6667 12.8044 10.3857 12.1261 9.88562 11.626C9.38552 11.1259 8.70725 10.845 8 10.845H4C3.29276 10.845 2.61448 11.1259 2.11438 11.626C1.61429 12.1261 1.33334 12.8044 1.33334 13.5116V14.845" stroke="#D4AF37" stroke-width="1.33333" stroke-linecap="round" stroke-linejoin="round"/>
<path d="M10.6667 2.9303C11.2385 3.07854 11.7449 3.41247 12.1065 3.87967C12.468 4.34687 12.6641 4.92089 12.6641 5.51163C12.6641 6.10237 12.468 6.67639 12.1065 7.14359C11.7449 7.61079 11.2385 7.94472 10.6667 8.09296" stroke="#D4AF37" stroke-width="1.33333" stroke-linecap="round" stroke-linejoin="round"/>
<path d="M14.6667 14.845V13.5116C14.6662 12.9208 14.4696 12.3468 14.1076 11.8799C13.7456 11.4129 13.2388 11.0794 12.6667 10.9316" stroke="#D4AF37" stroke-width="1.33333" stroke-linecap="round" stroke-linejoin="round"/>
<path d="M6 8.1783C7.47276 8.1783 8.66667 6.9844 8.66667 5.51164C8.66667 4.03888 7.47276 2.84497 6 2.84497C4.52724 2.84497 3.33334 4.03888 3.33334 5.51164C3.33334 6.9844 4.52724 8.1783 6 8.1783Z" stroke="#D4AF37" stroke-width="1.33333" stroke-linecap="round" stroke-linejoin="round"/>
</svg>
